<mxfile host="app.diagrams.net" modified="2024-01-18T08:59:37.990Z" agent="Mozilla/5.0 (Macintosh; Intel Mac OS X 10_15_7) AppleWebKit/537.36 (KHTML, like Gecko) Chrome/120.0.0.0 Safari/537.36" etag="rGkmXxJ-sX2x4R5Fk26S" version="22.1.18" type="github">
  <diagram name="第 1 页" id="ZnNpxRHEwUdS5ODnLH7T">
    <mxGraphModel dx="3074" dy="1854" grid="1" gridSize="10" guides="1" tooltips="1" connect="1" arrows="1" fold="1" page="1" pageScale="1" pageWidth="1169" pageHeight="827" math="0" shadow="0">
      <root>
        <mxCell id="0" />
        <mxCell id="1" parent="0" />
        <mxCell id="-m0TWuSJzz9cbULBEKxm-22" value="" style="group;dashed=1;container=0;fillColor=default;strokeColor=default;" parent="1" vertex="1" connectable="0">
          <mxGeometry x="415" y="-55" width="510" height="530" as="geometry" />
        </mxCell>
        <mxCell id="-m0TWuSJzz9cbULBEKxm-15" value="" style="rounded=0;whiteSpace=wrap;html=1;dashed=1;" parent="1" vertex="1">
          <mxGeometry x="-160" y="520" width="3000" height="1220" as="geometry" />
        </mxCell>
        <mxCell id="-m0TWuSJzz9cbULBEKxm-17" value="智能设计" style="text;html=1;strokeColor=none;fillColor=none;align=center;verticalAlign=middle;whiteSpace=wrap;rounded=0;fontStyle=1;fontSize=14;" parent="1" vertex="1">
          <mxGeometry x="-160" y="520" width="60" height="30" as="geometry" />
        </mxCell>
        <mxCell id="-m0TWuSJzz9cbULBEKxm-27" value="" style="edgeStyle=orthogonalEdgeStyle;rounded=0;orthogonalLoop=1;jettySize=auto;html=1;" parent="1" source="-m0TWuSJzz9cbULBEKxm-23" target="-m0TWuSJzz9cbULBEKxm-26" edge="1">
          <mxGeometry relative="1" as="geometry" />
        </mxCell>
        <mxCell id="-m0TWuSJzz9cbULBEKxm-55" value="" style="edgeStyle=orthogonalEdgeStyle;rounded=0;orthogonalLoop=1;jettySize=auto;html=1;" parent="1" source="-m0TWuSJzz9cbULBEKxm-23" target="-m0TWuSJzz9cbULBEKxm-54" edge="1">
          <mxGeometry relative="1" as="geometry">
            <Array as="points">
              <mxPoint x="-50" y="1110" />
            </Array>
          </mxGeometry>
        </mxCell>
        <mxCell id="-m0TWuSJzz9cbULBEKxm-23" value="场景详情页" style="rounded=0;whiteSpace=wrap;html=1;" parent="1" vertex="1">
          <mxGeometry x="-100" y="650" width="120" height="60" as="geometry" />
        </mxCell>
        <mxCell id="-m0TWuSJzz9cbULBEKxm-30" value="" style="edgeStyle=orthogonalEdgeStyle;rounded=0;orthogonalLoop=1;jettySize=auto;html=1;" parent="1" source="-m0TWuSJzz9cbULBEKxm-26" target="-m0TWuSJzz9cbULBEKxm-29" edge="1">
          <mxGeometry relative="1" as="geometry" />
        </mxCell>
        <mxCell id="J_wIRonpI3oPX-V9wtXN-3" value="是" style="edgeLabel;html=1;align=center;verticalAlign=middle;resizable=0;points=[];" vertex="1" connectable="0" parent="-m0TWuSJzz9cbULBEKxm-30">
          <mxGeometry x="-0.2333" y="1" relative="1" as="geometry">
            <mxPoint as="offset" />
          </mxGeometry>
        </mxCell>
        <mxCell id="J_wIRonpI3oPX-V9wtXN-5" style="edgeStyle=orthogonalEdgeStyle;rounded=0;orthogonalLoop=1;jettySize=auto;html=1;exitX=0.5;exitY=0;exitDx=0;exitDy=0;" edge="1" parent="1" source="-m0TWuSJzz9cbULBEKxm-26">
          <mxGeometry relative="1" as="geometry">
            <mxPoint x="1000" y="680" as="targetPoint" />
            <Array as="points">
              <mxPoint x="160" y="590" />
              <mxPoint x="1000" y="590" />
            </Array>
          </mxGeometry>
        </mxCell>
        <mxCell id="J_wIRonpI3oPX-V9wtXN-6" value="否" style="edgeLabel;html=1;align=center;verticalAlign=middle;resizable=0;points=[];" vertex="1" connectable="0" parent="J_wIRonpI3oPX-V9wtXN-5">
          <mxGeometry x="-0.049" y="2" relative="1" as="geometry">
            <mxPoint as="offset" />
          </mxGeometry>
        </mxCell>
        <mxCell id="-m0TWuSJzz9cbULBEKxm-26" value="链接带参数" style="rhombus;whiteSpace=wrap;html=1;rounded=0;fillColor=#fff2cc;strokeColor=#d6b656;" parent="1" vertex="1">
          <mxGeometry x="120" y="640" width="80" height="80" as="geometry" />
        </mxCell>
        <mxCell id="-m0TWuSJzz9cbULBEKxm-32" value="" style="edgeStyle=orthogonalEdgeStyle;rounded=0;orthogonalLoop=1;jettySize=auto;html=1;" parent="1" source="-m0TWuSJzz9cbULBEKxm-29" target="-m0TWuSJzz9cbULBEKxm-31" edge="1">
          <mxGeometry relative="1" as="geometry" />
        </mxCell>
        <mxCell id="-m0TWuSJzz9cbULBEKxm-29" value="填充图片参数" style="whiteSpace=wrap;html=1;rounded=0;" parent="1" vertex="1">
          <mxGeometry x="260" y="650" width="120" height="60" as="geometry" />
        </mxCell>
        <mxCell id="-m0TWuSJzz9cbULBEKxm-36" value="" style="edgeStyle=orthogonalEdgeStyle;rounded=0;orthogonalLoop=1;jettySize=auto;html=1;" parent="1" source="-m0TWuSJzz9cbULBEKxm-31" target="-m0TWuSJzz9cbULBEKxm-35" edge="1">
          <mxGeometry relative="1" as="geometry" />
        </mxCell>
        <mxCell id="-m0TWuSJzz9cbULBEKxm-31" value="匹配填写项" style="whiteSpace=wrap;html=1;rounded=0;" parent="1" vertex="1">
          <mxGeometry x="460" y="650" width="120" height="60" as="geometry" />
        </mxCell>
        <mxCell id="-m0TWuSJzz9cbULBEKxm-38" value="" style="edgeStyle=orthogonalEdgeStyle;rounded=0;orthogonalLoop=1;jettySize=auto;html=1;" parent="1" source="-m0TWuSJzz9cbULBEKxm-35" target="-m0TWuSJzz9cbULBEKxm-37" edge="1">
          <mxGeometry relative="1" as="geometry" />
        </mxCell>
        <mxCell id="-m0TWuSJzz9cbULBEKxm-100" value="不需要" style="edgeLabel;html=1;align=center;verticalAlign=middle;resizable=0;points=[];" parent="-m0TWuSJzz9cbULBEKxm-38" vertex="1" connectable="0">
          <mxGeometry x="-0.6591" y="-1" relative="1" as="geometry">
            <mxPoint as="offset" />
          </mxGeometry>
        </mxCell>
        <mxCell id="-m0TWuSJzz9cbULBEKxm-44" value="" style="edgeStyle=orthogonalEdgeStyle;rounded=0;orthogonalLoop=1;jettySize=auto;html=1;" parent="1" source="-m0TWuSJzz9cbULBEKxm-35" target="-m0TWuSJzz9cbULBEKxm-43" edge="1">
          <mxGeometry relative="1" as="geometry" />
        </mxCell>
        <mxCell id="-m0TWuSJzz9cbULBEKxm-101" value="需要" style="edgeLabel;html=1;align=center;verticalAlign=middle;resizable=0;points=[];" parent="-m0TWuSJzz9cbULBEKxm-44" vertex="1" connectable="0">
          <mxGeometry x="-0.125" relative="1" as="geometry">
            <mxPoint as="offset" />
          </mxGeometry>
        </mxCell>
        <mxCell id="-m0TWuSJzz9cbULBEKxm-35" value="需要抠图" style="rhombus;whiteSpace=wrap;html=1;rounded=0;fillColor=#fff2cc;strokeColor=#d6b656;" parent="1" vertex="1">
          <mxGeometry x="670" y="640" width="80" height="80" as="geometry" />
        </mxCell>
        <mxCell id="-m0TWuSJzz9cbULBEKxm-40" value="" style="edgeStyle=orthogonalEdgeStyle;rounded=0;orthogonalLoop=1;jettySize=auto;html=1;" parent="1" source="-m0TWuSJzz9cbULBEKxm-37" target="-m0TWuSJzz9cbULBEKxm-39" edge="1">
          <mxGeometry relative="1" as="geometry" />
        </mxCell>
        <mxCell id="-m0TWuSJzz9cbULBEKxm-37" value="生成结果" style="whiteSpace=wrap;html=1;rounded=0;" parent="1" vertex="1">
          <mxGeometry x="1190" y="650" width="120" height="60" as="geometry" />
        </mxCell>
        <mxCell id="-m0TWuSJzz9cbULBEKxm-87" value="" style="edgeStyle=orthogonalEdgeStyle;rounded=0;orthogonalLoop=1;jettySize=auto;html=1;" parent="1" source="-m0TWuSJzz9cbULBEKxm-39" target="-m0TWuSJzz9cbULBEKxm-86" edge="1">
          <mxGeometry relative="1" as="geometry" />
        </mxCell>
        <mxCell id="-m0TWuSJzz9cbULBEKxm-104" value="" style="edgeStyle=orthogonalEdgeStyle;rounded=0;orthogonalLoop=1;jettySize=auto;html=1;" parent="1" source="-m0TWuSJzz9cbULBEKxm-39" target="-m0TWuSJzz9cbULBEKxm-103" edge="1">
          <mxGeometry relative="1" as="geometry" />
        </mxCell>
        <mxCell id="-m0TWuSJzz9cbULBEKxm-39" value="替换内容" style="rhombus;whiteSpace=wrap;html=1;rounded=0;fillColor=#fff2cc;strokeColor=#d6b656;" parent="1" vertex="1">
          <mxGeometry x="1410" y="640" width="80" height="80" as="geometry" />
        </mxCell>
        <mxCell id="-m0TWuSJzz9cbULBEKxm-46" value="" style="edgeStyle=orthogonalEdgeStyle;rounded=0;orthogonalLoop=1;jettySize=auto;html=1;" parent="1" source="-m0TWuSJzz9cbULBEKxm-43" target="-m0TWuSJzz9cbULBEKxm-45" edge="1">
          <mxGeometry relative="1" as="geometry" />
        </mxCell>
        <mxCell id="-m0TWuSJzz9cbULBEKxm-50" value="成功" style="edgeLabel;html=1;align=center;verticalAlign=middle;resizable=0;points=[];" parent="-m0TWuSJzz9cbULBEKxm-46" vertex="1" connectable="0">
          <mxGeometry x="0.1333" y="-1" relative="1" as="geometry">
            <mxPoint as="offset" />
          </mxGeometry>
        </mxCell>
        <mxCell id="-m0TWuSJzz9cbULBEKxm-48" value="" style="edgeStyle=orthogonalEdgeStyle;rounded=0;orthogonalLoop=1;jettySize=auto;html=1;" parent="1" source="-m0TWuSJzz9cbULBEKxm-43" target="-m0TWuSJzz9cbULBEKxm-47" edge="1">
          <mxGeometry relative="1" as="geometry">
            <Array as="points">
              <mxPoint x="710" y="990" />
            </Array>
          </mxGeometry>
        </mxCell>
        <mxCell id="-m0TWuSJzz9cbULBEKxm-53" value="失败" style="edgeLabel;html=1;align=center;verticalAlign=middle;resizable=0;points=[];" parent="-m0TWuSJzz9cbULBEKxm-48" vertex="1" connectable="0">
          <mxGeometry x="-0.1333" y="1" relative="1" as="geometry">
            <mxPoint as="offset" />
          </mxGeometry>
        </mxCell>
        <mxCell id="-m0TWuSJzz9cbULBEKxm-43" value="抠图" style="rhombus;whiteSpace=wrap;html=1;rounded=0;fillColor=#fff2cc;strokeColor=#d6b656;" parent="1" vertex="1">
          <mxGeometry x="670" y="800" width="80" height="80" as="geometry" />
        </mxCell>
        <mxCell id="-m0TWuSJzz9cbULBEKxm-49" style="edgeStyle=orthogonalEdgeStyle;rounded=0;orthogonalLoop=1;jettySize=auto;html=1;exitX=0.5;exitY=0;exitDx=0;exitDy=0;" parent="1" source="-m0TWuSJzz9cbULBEKxm-45" edge="1">
          <mxGeometry relative="1" as="geometry">
            <mxPoint x="870" y="680" as="targetPoint" />
          </mxGeometry>
        </mxCell>
        <mxCell id="-m0TWuSJzz9cbULBEKxm-45" value="结果图" style="whiteSpace=wrap;html=1;rounded=0;" parent="1" vertex="1">
          <mxGeometry x="810" y="810" width="120" height="60" as="geometry" />
        </mxCell>
        <mxCell id="-m0TWuSJzz9cbULBEKxm-52" style="edgeStyle=orthogonalEdgeStyle;rounded=0;orthogonalLoop=1;jettySize=auto;html=1;exitX=1;exitY=0.5;exitDx=0;exitDy=0;" parent="1" source="-m0TWuSJzz9cbULBEKxm-47" edge="1">
          <mxGeometry relative="1" as="geometry">
            <mxPoint x="970" y="680" as="targetPoint" />
          </mxGeometry>
        </mxCell>
        <mxCell id="-m0TWuSJzz9cbULBEKxm-47" value="原图" style="whiteSpace=wrap;html=1;rounded=0;" parent="1" vertex="1">
          <mxGeometry x="810" y="960" width="120" height="60" as="geometry" />
        </mxCell>
        <mxCell id="-m0TWuSJzz9cbULBEKxm-57" value="" style="edgeStyle=orthogonalEdgeStyle;rounded=0;orthogonalLoop=1;jettySize=auto;html=1;" parent="1" source="-m0TWuSJzz9cbULBEKxm-54" target="-m0TWuSJzz9cbULBEKxm-56" edge="1">
          <mxGeometry relative="1" as="geometry" />
        </mxCell>
        <mxCell id="J_wIRonpI3oPX-V9wtXN-7" value="是" style="edgeLabel;html=1;align=center;verticalAlign=middle;resizable=0;points=[];" vertex="1" connectable="0" parent="-m0TWuSJzz9cbULBEKxm-57">
          <mxGeometry x="-0.28" relative="1" as="geometry">
            <mxPoint as="offset" />
          </mxGeometry>
        </mxCell>
        <mxCell id="J_wIRonpI3oPX-V9wtXN-8" style="edgeStyle=orthogonalEdgeStyle;rounded=0;orthogonalLoop=1;jettySize=auto;html=1;exitX=0.5;exitY=0;exitDx=0;exitDy=0;" edge="1" parent="1" source="-m0TWuSJzz9cbULBEKxm-54">
          <mxGeometry relative="1" as="geometry">
            <mxPoint x="540" y="1110" as="targetPoint" />
            <Array as="points">
              <mxPoint x="170" y="1050" />
              <mxPoint x="540" y="1050" />
            </Array>
          </mxGeometry>
        </mxCell>
        <mxCell id="J_wIRonpI3oPX-V9wtXN-9" value="否" style="edgeLabel;html=1;align=center;verticalAlign=middle;resizable=0;points=[];" vertex="1" connectable="0" parent="J_wIRonpI3oPX-V9wtXN-8">
          <mxGeometry x="-0.1111" y="2" relative="1" as="geometry">
            <mxPoint as="offset" />
          </mxGeometry>
        </mxCell>
        <mxCell id="-m0TWuSJzz9cbULBEKxm-54" value="打工人场景" style="rhombus;whiteSpace=wrap;html=1;rounded=0;fillColor=#fff2cc;strokeColor=#d6b656;" parent="1" vertex="1">
          <mxGeometry x="130" y="1070" width="80" height="80" as="geometry" />
        </mxCell>
        <mxCell id="-m0TWuSJzz9cbULBEKxm-58" style="edgeStyle=orthogonalEdgeStyle;rounded=0;orthogonalLoop=1;jettySize=auto;html=1;exitX=1;exitY=0.5;exitDx=0;exitDy=0;" parent="1" source="-m0TWuSJzz9cbULBEKxm-56" edge="1">
          <mxGeometry relative="1" as="geometry">
            <mxPoint x="1080" y="680" as="targetPoint" />
          </mxGeometry>
        </mxCell>
        <mxCell id="-m0TWuSJzz9cbULBEKxm-56" value="填充文本" style="whiteSpace=wrap;html=1;rounded=0;" parent="1" vertex="1">
          <mxGeometry x="260" y="1080" width="120" height="60" as="geometry" />
        </mxCell>
        <mxCell id="-m0TWuSJzz9cbULBEKxm-91" style="edgeStyle=orthogonalEdgeStyle;rounded=0;orthogonalLoop=1;jettySize=auto;html=1;exitX=0;exitY=0.5;exitDx=0;exitDy=0;" parent="1" source="-m0TWuSJzz9cbULBEKxm-86" target="-m0TWuSJzz9cbULBEKxm-88" edge="1">
          <mxGeometry relative="1" as="geometry" />
        </mxCell>
        <mxCell id="-m0TWuSJzz9cbULBEKxm-92" value="是" style="edgeLabel;html=1;align=center;verticalAlign=middle;resizable=0;points=[];" parent="-m0TWuSJzz9cbULBEKxm-91" vertex="1" connectable="0">
          <mxGeometry x="0.3818" y="-1" relative="1" as="geometry">
            <mxPoint as="offset" />
          </mxGeometry>
        </mxCell>
        <mxCell id="-m0TWuSJzz9cbULBEKxm-93" style="edgeStyle=orthogonalEdgeStyle;rounded=0;orthogonalLoop=1;jettySize=auto;html=1;exitX=1;exitY=0.5;exitDx=0;exitDy=0;entryX=0.5;entryY=0;entryDx=0;entryDy=0;" parent="1" source="-m0TWuSJzz9cbULBEKxm-86" target="-m0TWuSJzz9cbULBEKxm-90" edge="1">
          <mxGeometry relative="1" as="geometry" />
        </mxCell>
        <mxCell id="-m0TWuSJzz9cbULBEKxm-94" value="否" style="edgeLabel;html=1;align=center;verticalAlign=middle;resizable=0;points=[];" parent="-m0TWuSJzz9cbULBEKxm-93" vertex="1" connectable="0">
          <mxGeometry x="0.24" relative="1" as="geometry">
            <mxPoint as="offset" />
          </mxGeometry>
        </mxCell>
        <mxCell id="-m0TWuSJzz9cbULBEKxm-86" value="特定场景" style="rhombus;whiteSpace=wrap;html=1;fillColor=#fff2cc;strokeColor=#d6b656;rounded=0;" parent="1" vertex="1">
          <mxGeometry x="1410" y="800" width="80" height="80" as="geometry" />
        </mxCell>
        <mxCell id="-m0TWuSJzz9cbULBEKxm-96" style="edgeStyle=orthogonalEdgeStyle;rounded=0;orthogonalLoop=1;jettySize=auto;html=1;exitX=0.5;exitY=1;exitDx=0;exitDy=0;entryX=0.5;entryY=0;entryDx=0;entryDy=0;" parent="1" source="-m0TWuSJzz9cbULBEKxm-88" target="-m0TWuSJzz9cbULBEKxm-95" edge="1">
          <mxGeometry relative="1" as="geometry" />
        </mxCell>
        <mxCell id="-m0TWuSJzz9cbULBEKxm-88" value="春节皮肤" style="rounded=0;whiteSpace=wrap;html=1;" parent="1" vertex="1">
          <mxGeometry x="1300" y="900" width="120" height="60" as="geometry" />
        </mxCell>
        <mxCell id="-m0TWuSJzz9cbULBEKxm-97" style="edgeStyle=orthogonalEdgeStyle;rounded=0;orthogonalLoop=1;jettySize=auto;html=1;exitX=0.5;exitY=1;exitDx=0;exitDy=0;entryX=0.5;entryY=0;entryDx=0;entryDy=0;" parent="1" source="-m0TWuSJzz9cbULBEKxm-90" target="-m0TWuSJzz9cbULBEKxm-95" edge="1">
          <mxGeometry relative="1" as="geometry" />
        </mxCell>
        <mxCell id="-m0TWuSJzz9cbULBEKxm-90" value="普通皮肤" style="rounded=0;whiteSpace=wrap;html=1;" parent="1" vertex="1">
          <mxGeometry x="1470" y="900" width="120" height="60" as="geometry" />
        </mxCell>
        <mxCell id="-m0TWuSJzz9cbULBEKxm-98" style="edgeStyle=orthogonalEdgeStyle;rounded=0;orthogonalLoop=1;jettySize=auto;html=1;exitX=0.5;exitY=1;exitDx=0;exitDy=0;" parent="1" source="-m0TWuSJzz9cbULBEKxm-95" edge="1">
          <mxGeometry relative="1" as="geometry">
            <mxPoint x="1110" y="680" as="targetPoint" />
            <Array as="points">
              <mxPoint x="1450" y="1110" />
              <mxPoint x="1111" y="1110" />
            </Array>
          </mxGeometry>
        </mxCell>
        <mxCell id="-m0TWuSJzz9cbULBEKxm-99" value="填充文本、图片" style="edgeLabel;html=1;align=center;verticalAlign=middle;resizable=0;points=[];" parent="-m0TWuSJzz9cbULBEKxm-98" vertex="1" connectable="0">
          <mxGeometry x="-0.2682" y="1" relative="1" as="geometry">
            <mxPoint as="offset" />
          </mxGeometry>
        </mxCell>
        <mxCell id="-m0TWuSJzz9cbULBEKxm-95" value="填写表单" style="rounded=0;whiteSpace=wrap;html=1;" parent="1" vertex="1">
          <mxGeometry x="1390" y="1010" width="120" height="60" as="geometry" />
        </mxCell>
        <mxCell id="-m0TWuSJzz9cbULBEKxm-102" value="" style="group" parent="1" vertex="1" connectable="0">
          <mxGeometry x="2020" y="650" width="780" height="460" as="geometry" />
        </mxCell>
        <mxCell id="-m0TWuSJzz9cbULBEKxm-64" value="app 编辑器" style="rounded=0;whiteSpace=wrap;html=1;" parent="-m0TWuSJzz9cbULBEKxm-102" vertex="1">
          <mxGeometry x="410" width="120" height="60" as="geometry" />
        </mxCell>
        <mxCell id="-m0TWuSJzz9cbULBEKxm-65" value="结束" style="rounded=1;whiteSpace=wrap;html=1;fillColor=#f8cecc;strokeColor=#b85450;" parent="-m0TWuSJzz9cbULBEKxm-102" vertex="1">
          <mxGeometry x="660" width="120" height="60" as="geometry" />
        </mxCell>
        <mxCell id="-m0TWuSJzz9cbULBEKxm-67" style="edgeStyle=orthogonalEdgeStyle;rounded=0;orthogonalLoop=1;jettySize=auto;html=1;exitX=1;exitY=0.5;exitDx=0;exitDy=0;" parent="-m0TWuSJzz9cbULBEKxm-102" source="-m0TWuSJzz9cbULBEKxm-64" target="-m0TWuSJzz9cbULBEKxm-65" edge="1">
          <mxGeometry relative="1" as="geometry" />
        </mxCell>
        <mxCell id="-m0TWuSJzz9cbULBEKxm-69" style="edgeStyle=orthogonalEdgeStyle;rounded=0;orthogonalLoop=1;jettySize=auto;html=1;exitX=1;exitY=0.5;exitDx=0;exitDy=0;entryX=0;entryY=0.5;entryDx=0;entryDy=0;" parent="-m0TWuSJzz9cbULBEKxm-102" source="-m0TWuSJzz9cbULBEKxm-68" target="-m0TWuSJzz9cbULBEKxm-64" edge="1">
          <mxGeometry relative="1" as="geometry" />
        </mxCell>
        <mxCell id="-m0TWuSJzz9cbULBEKxm-70" value="app 内直接打开" style="edgeLabel;html=1;align=center;verticalAlign=middle;resizable=0;points=[];" parent="-m0TWuSJzz9cbULBEKxm-69" vertex="1" connectable="0">
          <mxGeometry x="-0.0541" y="1" relative="1" as="geometry">
            <mxPoint as="offset" />
          </mxGeometry>
        </mxCell>
        <mxCell id="-m0TWuSJzz9cbULBEKxm-68" value="打开作图记录" style="rounded=0;whiteSpace=wrap;html=1;" parent="-m0TWuSJzz9cbULBEKxm-102" vertex="1">
          <mxGeometry width="120" height="60" as="geometry" />
        </mxCell>
        <mxCell id="-m0TWuSJzz9cbULBEKxm-72" value="唤起 App" style="rhombus;whiteSpace=wrap;html=1;rounded=0;fillColor=#fff2cc;strokeColor=#d6b656;" parent="-m0TWuSJzz9cbULBEKxm-102" vertex="1">
          <mxGeometry x="230" y="100" width="80" height="80" as="geometry" />
        </mxCell>
        <mxCell id="-m0TWuSJzz9cbULBEKxm-79" style="edgeStyle=orthogonalEdgeStyle;rounded=0;orthogonalLoop=1;jettySize=auto;html=1;exitX=0.5;exitY=1;exitDx=0;exitDy=0;entryX=0;entryY=0.5;entryDx=0;entryDy=0;" parent="-m0TWuSJzz9cbULBEKxm-102" source="-m0TWuSJzz9cbULBEKxm-68" target="-m0TWuSJzz9cbULBEKxm-72" edge="1">
          <mxGeometry relative="1" as="geometry" />
        </mxCell>
        <mxCell id="-m0TWuSJzz9cbULBEKxm-80" value="app 外尝试唤起" style="edgeLabel;html=1;align=center;verticalAlign=middle;resizable=0;points=[];" parent="-m0TWuSJzz9cbULBEKxm-79" vertex="1" connectable="0">
          <mxGeometry x="-0.136" relative="1" as="geometry">
            <mxPoint as="offset" />
          </mxGeometry>
        </mxCell>
        <mxCell id="-m0TWuSJzz9cbULBEKxm-74" style="edgeStyle=orthogonalEdgeStyle;rounded=0;orthogonalLoop=1;jettySize=auto;html=1;exitX=1;exitY=0.5;exitDx=0;exitDy=0;entryX=0.592;entryY=1.067;entryDx=0;entryDy=0;entryPerimeter=0;" parent="-m0TWuSJzz9cbULBEKxm-102" source="-m0TWuSJzz9cbULBEKxm-72" target="-m0TWuSJzz9cbULBEKxm-64" edge="1">
          <mxGeometry relative="1" as="geometry" />
        </mxCell>
        <mxCell id="-m0TWuSJzz9cbULBEKxm-75" value="成功" style="edgeLabel;html=1;align=center;verticalAlign=middle;resizable=0;points=[];" parent="-m0TWuSJzz9cbULBEKxm-74" vertex="1" connectable="0">
          <mxGeometry x="-0.3036" y="-2" relative="1" as="geometry">
            <mxPoint as="offset" />
          </mxGeometry>
        </mxCell>
        <mxCell id="-m0TWuSJzz9cbULBEKxm-76" value="引导下载弹窗" style="rounded=0;whiteSpace=wrap;html=1;" parent="-m0TWuSJzz9cbULBEKxm-102" vertex="1">
          <mxGeometry x="210" y="240" width="120" height="60" as="geometry" />
        </mxCell>
        <mxCell id="-m0TWuSJzz9cbULBEKxm-77" style="edgeStyle=orthogonalEdgeStyle;rounded=0;orthogonalLoop=1;jettySize=auto;html=1;exitX=0.5;exitY=1;exitDx=0;exitDy=0;entryX=0.5;entryY=0;entryDx=0;entryDy=0;" parent="-m0TWuSJzz9cbULBEKxm-102" source="-m0TWuSJzz9cbULBEKxm-72" target="-m0TWuSJzz9cbULBEKxm-76" edge="1">
          <mxGeometry relative="1" as="geometry" />
        </mxCell>
        <mxCell id="-m0TWuSJzz9cbULBEKxm-81" value="失败" style="edgeLabel;html=1;align=center;verticalAlign=middle;resizable=0;points=[];" parent="-m0TWuSJzz9cbULBEKxm-77" vertex="1" connectable="0">
          <mxGeometry x="0.0667" y="-1" relative="1" as="geometry">
            <mxPoint as="offset" />
          </mxGeometry>
        </mxCell>
        <mxCell id="-m0TWuSJzz9cbULBEKxm-85" style="edgeStyle=orthogonalEdgeStyle;rounded=0;orthogonalLoop=1;jettySize=auto;html=1;exitX=0.5;exitY=1;exitDx=0;exitDy=0;entryX=0.5;entryY=1;entryDx=0;entryDy=0;" parent="-m0TWuSJzz9cbULBEKxm-102" source="-m0TWuSJzz9cbULBEKxm-83" target="-m0TWuSJzz9cbULBEKxm-65" edge="1">
          <mxGeometry relative="1" as="geometry">
            <Array as="points">
              <mxPoint x="270" y="460" />
              <mxPoint x="720" y="460" />
            </Array>
          </mxGeometry>
        </mxCell>
        <mxCell id="-m0TWuSJzz9cbULBEKxm-83" value="下载页" style="whiteSpace=wrap;html=1;rounded=0;" parent="-m0TWuSJzz9cbULBEKxm-102" vertex="1">
          <mxGeometry x="210" y="360" width="120" height="60" as="geometry" />
        </mxCell>
        <mxCell id="-m0TWuSJzz9cbULBEKxm-84" value="" style="edgeStyle=orthogonalEdgeStyle;rounded=0;orthogonalLoop=1;jettySize=auto;html=1;" parent="-m0TWuSJzz9cbULBEKxm-102" source="-m0TWuSJzz9cbULBEKxm-76" target="-m0TWuSJzz9cbULBEKxm-83" edge="1">
          <mxGeometry relative="1" as="geometry" />
        </mxCell>
        <mxCell id="-m0TWuSJzz9cbULBEKxm-108" value="" style="edgeStyle=orthogonalEdgeStyle;rounded=0;orthogonalLoop=1;jettySize=auto;html=1;" parent="1" source="-m0TWuSJzz9cbULBEKxm-103" target="-m0TWuSJzz9cbULBEKxm-107" edge="1">
          <mxGeometry relative="1" as="geometry" />
        </mxCell>
        <mxCell id="-m0TWuSJzz9cbULBEKxm-103" value="编辑模板" style="whiteSpace=wrap;html=1;rounded=0;" parent="1" vertex="1">
          <mxGeometry x="1634" y="650" width="120" height="60" as="geometry" />
        </mxCell>
        <mxCell id="-m0TWuSJzz9cbULBEKxm-109" style="edgeStyle=orthogonalEdgeStyle;rounded=0;orthogonalLoop=1;jettySize=auto;html=1;exitX=1;exitY=0.5;exitDx=0;exitDy=0;" parent="1" source="-m0TWuSJzz9cbULBEKxm-107" target="-m0TWuSJzz9cbULBEKxm-68" edge="1">
          <mxGeometry relative="1" as="geometry" />
        </mxCell>
        <mxCell id="-m0TWuSJzz9cbULBEKxm-110" value="成功" style="edgeLabel;html=1;align=center;verticalAlign=middle;resizable=0;points=[];" parent="-m0TWuSJzz9cbULBEKxm-109" vertex="1" connectable="0">
          <mxGeometry x="-0.1273" y="1" relative="1" as="geometry">
            <mxPoint as="offset" />
          </mxGeometry>
        </mxCell>
        <mxCell id="-m0TWuSJzz9cbULBEKxm-111" style="edgeStyle=orthogonalEdgeStyle;rounded=0;orthogonalLoop=1;jettySize=auto;html=1;exitX=0.5;exitY=0;exitDx=0;exitDy=0;" parent="1" source="-m0TWuSJzz9cbULBEKxm-107" edge="1">
          <mxGeometry relative="1" as="geometry">
            <mxPoint x="1540" y="680" as="targetPoint" />
            <Array as="points">
              <mxPoint x="1880" y="590" />
              <mxPoint x="1540" y="590" />
            </Array>
          </mxGeometry>
        </mxCell>
        <mxCell id="-m0TWuSJzz9cbULBEKxm-112" value="失败" style="edgeLabel;html=1;align=center;verticalAlign=middle;resizable=0;points=[];" parent="-m0TWuSJzz9cbULBEKxm-111" vertex="1" connectable="0">
          <mxGeometry x="0.025" y="4" relative="1" as="geometry">
            <mxPoint as="offset" />
          </mxGeometry>
        </mxCell>
        <mxCell id="-m0TWuSJzz9cbULBEKxm-107" value="保存作图记录" style="rhombus;whiteSpace=wrap;html=1;rounded=0;fillColor=#fff2cc;strokeColor=#d6b656;" parent="1" vertex="1">
          <mxGeometry x="1840" y="640" width="80" height="80" as="geometry" />
        </mxCell>
        <mxCell id="-m0TWuSJzz9cbULBEKxm-122" value="" style="rounded=0;whiteSpace=wrap;html=1;dashed=1;dashPattern=8 8;" parent="1" vertex="1">
          <mxGeometry x="-120" y="1250" width="1010" height="180" as="geometry" />
        </mxCell>
        <mxCell id="-m0TWuSJzz9cbULBEKxm-115" value="" style="edgeStyle=orthogonalEdgeStyle;rounded=0;orthogonalLoop=1;jettySize=auto;html=1;" parent="1" source="-m0TWuSJzz9cbULBEKxm-113" target="-m0TWuSJzz9cbULBEKxm-114" edge="1">
          <mxGeometry relative="1" as="geometry" />
        </mxCell>
        <mxCell id="-m0TWuSJzz9cbULBEKxm-113" value="pc 端无参数" style="rounded=0;whiteSpace=wrap;html=1;" parent="1" vertex="1">
          <mxGeometry x="-90" y="1310" width="120" height="60" as="geometry" />
        </mxCell>
        <mxCell id="-m0TWuSJzz9cbULBEKxm-117" value="" style="edgeStyle=orthogonalEdgeStyle;rounded=0;orthogonalLoop=1;jettySize=auto;html=1;" parent="1" source="-m0TWuSJzz9cbULBEKxm-114" target="-m0TWuSJzz9cbULBEKxm-116" edge="1">
          <mxGeometry relative="1" as="geometry" />
        </mxCell>
        <mxCell id="-m0TWuSJzz9cbULBEKxm-114" value="填写参数" style="whiteSpace=wrap;html=1;rounded=0;" parent="1" vertex="1">
          <mxGeometry x="110" y="1310" width="120" height="60" as="geometry" />
        </mxCell>
        <mxCell id="-m0TWuSJzz9cbULBEKxm-119" value="" style="edgeStyle=orthogonalEdgeStyle;rounded=0;orthogonalLoop=1;jettySize=auto;html=1;" parent="1" source="-m0TWuSJzz9cbULBEKxm-116" target="-m0TWuSJzz9cbULBEKxm-118" edge="1">
          <mxGeometry relative="1" as="geometry" />
        </mxCell>
        <mxCell id="-m0TWuSJzz9cbULBEKxm-116" value="生成结果" style="whiteSpace=wrap;html=1;rounded=0;" parent="1" vertex="1">
          <mxGeometry x="310" y="1310" width="120" height="60" as="geometry" />
        </mxCell>
        <mxCell id="-m0TWuSJzz9cbULBEKxm-121" style="edgeStyle=orthogonalEdgeStyle;rounded=0;orthogonalLoop=1;jettySize=auto;html=1;exitX=1;exitY=0.5;exitDx=0;exitDy=0;" parent="1" source="-m0TWuSJzz9cbULBEKxm-118" target="-m0TWuSJzz9cbULBEKxm-120" edge="1">
          <mxGeometry relative="1" as="geometry" />
        </mxCell>
        <mxCell id="-m0TWuSJzz9cbULBEKxm-118" value="打开编辑器" style="whiteSpace=wrap;html=1;rounded=0;" parent="1" vertex="1">
          <mxGeometry x="510" y="1310" width="120" height="60" as="geometry" />
        </mxCell>
        <mxCell id="-m0TWuSJzz9cbULBEKxm-120" value="结束" style="rounded=1;whiteSpace=wrap;html=1;fillColor=#f8cecc;strokeColor=#b85450;" parent="1" vertex="1">
          <mxGeometry x="730" y="1310" width="120" height="60" as="geometry" />
        </mxCell>
        <mxCell id="-m0TWuSJzz9cbULBEKxm-123" value="该流程保持不变" style="text;html=1;strokeColor=none;fillColor=none;align=left;verticalAlign=middle;whiteSpace=wrap;rounded=0;fontStyle=1;fontSize=14;" parent="1" vertex="1">
          <mxGeometry x="-120" y="1250" width="130" height="30" as="geometry" />
        </mxCell>
        <mxCell id="-m0TWuSJzz9cbULBEKxm-66" style="edgeStyle=orthogonalEdgeStyle;rounded=0;orthogonalLoop=1;jettySize=auto;html=1;exitX=0.5;exitY=1;exitDx=0;exitDy=0;" parent="1" source="-m0TWuSJzz9cbULBEKxm-18" edge="1">
          <mxGeometry relative="1" as="geometry">
            <mxPoint x="670" y="520" as="targetPoint" />
            <Array as="points">
              <mxPoint x="670" y="520" />
            </Array>
          </mxGeometry>
        </mxCell>
        <mxCell id="-m0TWuSJzz9cbULBEKxm-13" value="" style="rounded=0;whiteSpace=wrap;html=1;dashed=1;" parent="1" vertex="1">
          <mxGeometry x="-160" y="-55" width="510" height="530" as="geometry" />
        </mxCell>
        <mxCell id="-m0TWuSJzz9cbULBEKxm-1" value="活动页" style="rounded=1;whiteSpace=wrap;html=1;fillColor=#d5e8d4;strokeColor=#82b366;" parent="1" vertex="1">
          <mxGeometry x="40" y="-35" width="120" height="60" as="geometry" />
        </mxCell>
        <mxCell id="-m0TWuSJzz9cbULBEKxm-2" value="选择场景" style="rounded=0;whiteSpace=wrap;html=1;" parent="1" vertex="1">
          <mxGeometry x="40" y="85" width="120" height="60" as="geometry" />
        </mxCell>
        <mxCell id="-m0TWuSJzz9cbULBEKxm-8" style="edgeStyle=orthogonalEdgeStyle;rounded=0;orthogonalLoop=1;jettySize=auto;html=1;exitX=0.5;exitY=1;exitDx=0;exitDy=0;entryX=0.5;entryY=0;entryDx=0;entryDy=0;" parent="1" source="-m0TWuSJzz9cbULBEKxm-1" target="-m0TWuSJzz9cbULBEKxm-2" edge="1">
          <mxGeometry relative="1" as="geometry" />
        </mxCell>
        <mxCell id="-m0TWuSJzz9cbULBEKxm-3" value="上传图片" style="rounded=0;whiteSpace=wrap;html=1;" parent="1" vertex="1">
          <mxGeometry x="40" y="195" width="120" height="60" as="geometry" />
        </mxCell>
        <mxCell id="-m0TWuSJzz9cbULBEKxm-9" style="edgeStyle=orthogonalEdgeStyle;rounded=0;orthogonalLoop=1;jettySize=auto;html=1;exitX=0.5;exitY=1;exitDx=0;exitDy=0;" parent="1" source="-m0TWuSJzz9cbULBEKxm-2" target="-m0TWuSJzz9cbULBEKxm-3" edge="1">
          <mxGeometry relative="1" as="geometry" />
        </mxCell>
        <mxCell id="-m0TWuSJzz9cbULBEKxm-7" value="" style="edgeStyle=orthogonalEdgeStyle;rounded=0;orthogonalLoop=1;jettySize=auto;html=1;" parent="1" source="-m0TWuSJzz9cbULBEKxm-4" edge="1">
          <mxGeometry relative="1" as="geometry">
            <mxPoint x="100" y="515" as="targetPoint" />
          </mxGeometry>
        </mxCell>
        <mxCell id="-m0TWuSJzz9cbULBEKxm-10" value="审核通过" style="edgeLabel;html=1;align=center;verticalAlign=middle;resizable=0;points=[];" parent="-m0TWuSJzz9cbULBEKxm-7" vertex="1" connectable="0">
          <mxGeometry x="-0.1111" y="2" relative="1" as="geometry">
            <mxPoint as="offset" />
          </mxGeometry>
        </mxCell>
        <mxCell id="-m0TWuSJzz9cbULBEKxm-11" style="edgeStyle=orthogonalEdgeStyle;rounded=0;orthogonalLoop=1;jettySize=auto;html=1;exitX=0;exitY=0.5;exitDx=0;exitDy=0;" parent="1" source="-m0TWuSJzz9cbULBEKxm-4" edge="1">
          <mxGeometry relative="1" as="geometry">
            <mxPoint x="100" y="175" as="targetPoint" />
            <Array as="points">
              <mxPoint x="-50" y="365" />
              <mxPoint x="-50" y="175" />
            </Array>
          </mxGeometry>
        </mxCell>
        <mxCell id="-m0TWuSJzz9cbULBEKxm-12" value="审核不通过" style="edgeLabel;html=1;align=center;verticalAlign=middle;resizable=0;points=[];" parent="-m0TWuSJzz9cbULBEKxm-11" vertex="1" connectable="0">
          <mxGeometry x="-0.0933" y="1" relative="1" as="geometry">
            <mxPoint as="offset" />
          </mxGeometry>
        </mxCell>
        <mxCell id="-m0TWuSJzz9cbULBEKxm-4" value="审核" style="rhombus;whiteSpace=wrap;html=1;rounded=0;fillColor=#fff2cc;strokeColor=#d6b656;" parent="1" vertex="1">
          <mxGeometry x="60" y="325" width="80" height="80" as="geometry" />
        </mxCell>
        <mxCell id="-m0TWuSJzz9cbULBEKxm-5" value="" style="edgeStyle=orthogonalEdgeStyle;rounded=0;orthogonalLoop=1;jettySize=auto;html=1;" parent="1" source="-m0TWuSJzz9cbULBEKxm-3" target="-m0TWuSJzz9cbULBEKxm-4" edge="1">
          <mxGeometry relative="1" as="geometry" />
        </mxCell>
        <mxCell id="-m0TWuSJzz9cbULBEKxm-14" value="外部活动页场景" style="text;html=1;strokeColor=none;fillColor=none;align=center;verticalAlign=middle;whiteSpace=wrap;rounded=0;fontStyle=1;fontSize=14;" parent="1" vertex="1">
          <mxGeometry x="-160" y="-55" width="110" height="30" as="geometry" />
        </mxCell>
        <mxCell id="-m0TWuSJzz9cbULBEKxm-18" value="banner" style="rounded=1;whiteSpace=wrap;html=1;fillColor=#d5e8d4;strokeColor=#82b366;" parent="1" vertex="1">
          <mxGeometry x="610" y="-35" width="120" height="60" as="geometry" />
        </mxCell>
        <mxCell id="-m0TWuSJzz9cbULBEKxm-20" value="设计工具场景" style="text;html=1;strokeColor=none;fillColor=none;align=center;verticalAlign=middle;whiteSpace=wrap;rounded=0;fontStyle=1;fontSize=14;" parent="1" vertex="1">
          <mxGeometry x="415" y="-55" width="90" height="30" as="geometry" />
        </mxCell>
      </root>
    </mxGraphModel>
  </diagram>
</mxfile>
